<?xml version="1.0" encoding="UTF-8"?><svg id="Icon" xmlns="http://www.w3.org/2000/svg" viewBox="0 0 1524.02 519.48"><defs><style>.cls-1{fill:#044c4a;}</style></defs><g id="Icon-2"><polygon class="cls-1" points="112.69 292.83 228.33 292.83 211.1 424.01 95.47 424.01 112.69 292.83"/><polygon class="cls-1" points="254.25 95.47 237.02 226.65 121.39 226.65 138.61 95.47 254.25 95.47"/><path class="cls-1" d="m585.87,95.47h-232.45l-43.15,328.55h95.2l6.36-48.46h115.62l6.36,48.46h95.22l-43.15-328.55Zm-165.37,213.9l15.57-118.73h67.17l15.55,118.73h-98.29Z"/></g><g><path class="cls-1" d="m724.24,328.8v-138.12h26.09v56.78h61.77v-56.78h26.09v138.12h-26.09v-56.97h-61.77v56.97h-26.09Z"/><path class="cls-1" d="m951.18,225.21v103.59h-23.02v-10.68c-2.39,2.68-5.16,5.06-8.3,7.14-6.68,4.41-15.1,6.61-25.27,6.61-8.13,0-14.74-1.38-19.85-4.12-5.12-2.75-9.09-6.23-11.94-10.45-2.84-4.22-4.87-8.62-6.09-13.2-1.22-4.57-1.95-8.74-2.21-12.51-.25-3.77-.38-6.53-.38-8.26v-58.12h26.48v48.92c0,2.36.12,5.38.38,9.06.25,3.68,1.06,7.38,2.39,11.09,1.35,3.71,3.54,6.81,6.57,9.3,3.04,2.49,7.34,3.74,12.9,3.74,2.24,0,4.63-.36,7.2-1.06,2.56-.71,4.95-2.07,7.19-4.08,2.24-2.01,4.08-4.99,5.52-8.92,1.44-3.94,2.15-9.09,2.15-15.49v-52.56h26.28Z"/><polygon class="cls-1" points="1064.93 225.21 1006.42 374.84 982.26 374.84 999.29 327.99 957.51 225.21 984.55 225.21 1011.78 295.71 1038.85 225.21 1064.93 225.21"/><path class="cls-1" d="m1147.99,206.99l2.51,8.15,2.48-8.15h-4.99Z"/><path class="cls-1" d="m1170.25,190.68h-38.94l-42.2,138.12h26.86l8.75-28.77h52l8.89,28.77h26.86l-42.21-138.12Zm-38.13,84.98l18.38-60.53-2.51-8.15h4.99l-2.48,8.15,18.69,60.53h-37.07Z"/><path class="cls-1" d="m1317.77,270.68v58.12h-26.48v-48.92c0-2.36-.13-5.38-.38-9.06-.25-3.68-1.06-7.38-2.39-11.09-1.35-3.7-3.54-6.81-6.57-9.3-3.05-2.49-7.34-3.74-12.9-3.74-2.24,0-4.65.36-7.2,1.06-2.56.71-4.95,2.07-7.19,4.08s-4.08,4.97-5.52,8.88c-1.44,3.89-2.15,9.07-2.15,15.53v52.56h-26.48v-103.59h23.21v10.67c2.39-2.69,5.16-5.05,8.3-7.13,6.68-4.41,15.1-6.61,25.27-6.61,8.12,0,14.74,1.38,19.85,4.12,5.11,2.75,9.09,6.23,11.94,10.45,2.84,4.22,4.87,8.62,6.09,13.2,1.21,4.57,1.95,8.74,2.21,12.51.25,3.77.38,6.53.38,8.26Z"/><path class="cls-1" d="m1430.75,270.68v58.12h-26.47v-48.92c0-2.36-.13-5.38-.39-9.06-.25-3.68-1.06-7.38-2.39-11.09-1.34-3.7-3.54-6.81-6.57-9.3-3.04-2.49-7.34-3.74-12.9-3.74-2.24,0-4.63.36-7.19,1.06-2.56.71-4.96,2.07-7.2,4.08-2.23,2.01-4.07,4.97-5.5,8.88-1.45,3.89-2.16,9.07-2.16,15.53v52.56h-26.47v-138.12h23.2v45.2c2.39-2.69,5.17-5.05,8.3-7.13,6.68-4.41,15.11-6.61,25.27-6.61,8.13,0,14.74,1.38,19.85,4.12,5.12,2.75,9.11,6.23,11.94,10.45,2.85,4.22,4.87,8.62,6.09,13.2,1.22,4.57,1.95,8.74,2.21,12.51.25,3.77.38,6.53.38,8.26Z"/></g></svg>